<svg xmlns="http://www.w3.org/2000/svg" viewBox="0 0 1280 720" data-pptx-page-role="content" font-family="Microsoft YaHei, Aptos, Arial, sans-serif"><rect x="0" y="0" width="1280" height="720" rx="0" fill="#F8FAFC"/><g id="poster-decor-05" data-pptx-bounds="1040 0 240 720" data-pptx-role="decoration"><rect x="1162" y="0" width="118" height="720" rx="0" fill="#EAF0F6"/><circle cx="1174" cy="126" r="82" fill="#E76F2E" fill-opacity="1"/><circle cx="1095" cy="585" r="1.5" fill="#123B5D" fill-opacity="0.13"/><circle cx="1112" cy="585" r="2.2" fill="#123B5D" fill-opacity="0.13"/><circle cx="1129" cy="585" r="2.9" fill="#123B5D" fill-opacity="0.13"/><circle cx="1146" cy="585" r="1.5" fill="#123B5D" fill-opacity="0.13"/><circle cx="1163" cy="585" r="2.2" fill="#123B5D" fill-opacity="0.13"/><circle cx="1180" cy="585" r="2.9" fill="#123B5D" fill-opacity="0.13"/><circle cx="1197" cy="585" r="1.5" fill="#123B5D" fill-opacity="0.13"/><circle cx="1214" cy="585" r="2.2" fill="#123B5D" fill-opacity="0.13"/><circle cx="1231" cy="585" r="2.9" fill="#123B5D" fill-opacity="0.13"/><circle cx="1095" cy="602" r="2.2" fill="#123B5D" fill-opacity="0.13"/><circle cx="1112" cy="602" r="2.9" fill="#123B5D" fill-opacity="0.13"/><circle cx="1129" cy="602" r="1.5" fill="#123B5D" fill-opacity="0.13"/><circle cx="1146" cy="602" r="2.2" fill="#123B5D" fill-opacity="0.13"/><circle cx="1163" cy="602" r="2.9" fill="#123B5D" fill-opacity="0.13"/><circle cx="1180" cy="602" r="1.5" fill="#123B5D" fill-opacity="0.13"/><circle cx="1197" cy="602" r="2.2" fill="#123B5D" fill-opacity="0.13"/><circle cx="1214" cy="602" r="2.9" fill="#123B5D" fill-opacity="0.13"/><circle cx="1231" cy="602" r="1.5" fill="#123B5D" fill-opacity="0.13"/><circle cx="1095" cy="619" r="2.9" fill="#123B5D" fill-opacity="0.13"/><circle cx="1112" cy="619" r="1.5" fill="#123B5D" fill-opacity="0.13"/><circle cx="1129" cy="619" r="2.2" fill="#123B5D" fill-opacity="0.13"/><circle cx="1146" cy="619" r="2.9" fill="#123B5D" fill-opacity="0.13"/><circle cx="1163" cy="619" r="1.5" fill="#123B5D" fill-opacity="0.13"/><circle cx="1180" cy="619" r="2.2" fill="#123B5D" fill-opacity="0.13"/><circle cx="1197" cy="619" r="2.9" fill="#123B5D" fill-opacity="0.13"/><circle cx="1214" cy="619" r="1.5" fill="#123B5D" fill-opacity="0.13"/><circle cx="1231" cy="619" r="2.2" fill="#123B5D" fill-opacity="0.13"/><circle cx="1095" cy="636" r="1.5" fill="#123B5D" fill-opacity="0.13"/><circle cx="1112" cy="636" r="2.2" fill="#123B5D" fill-opacity="0.13"/><circle cx="1129" cy="636" r="2.9" fill="#123B5D" fill-opacity="0.13"/><circle cx="1146" cy="636" r="1.5" fill="#123B5D" fill-opacity="0.13"/><circle cx="1163" cy="636" r="2.2" fill="#123B5D" fill-opacity="0.13"/><circle cx="1180" cy="636" r="2.9" fill="#123B5D" fill-opacity="0.13"/><circle cx="1197" cy="636" r="1.5" fill="#123B5D" fill-opacity="0.13"/><circle cx="1214" cy="636" r="2.2" fill="#123B5D" fill-opacity="0.13"/><circle cx="1231" cy="636" r="2.9" fill="#123B5D" fill-opacity="0.13"/><circle cx="1095" cy="653" r="2.2" fill="#123B5D" fill-opacity="0.13"/><circle cx="1112" cy="653" r="2.9" fill="#123B5D" fill-opacity="0.13"/><circle cx="1129" cy="653" r="1.5" fill="#123B5D" fill-opacity="0.13"/><circle cx="1146" cy="653" r="2.2" fill="#123B5D" fill-opacity="0.13"/><circle cx="1163" cy="653" r="2.9" fill="#123B5D" fill-opacity="0.13"/><circle cx="1180" cy="653" r="1.5" fill="#123B5D" fill-opacity="0.13"/><circle cx="1197" cy="653" r="2.2" fill="#123B5D" fill-opacity="0.13"/><circle cx="1214" cy="653" r="2.9" fill="#123B5D" fill-opacity="0.13"/><circle cx="1231" cy="653" r="1.5" fill="#123B5D" fill-opacity="0.13"/></g><g id="header-05" data-pptx-bounds="64 45 900 143"><rect x="64" y="45" width="178" height="34" rx="17" fill="#E76F2E"/><text x="153.0" y="68" font-size="15" fill="#FFFFFF" font-weight="700" text-anchor="middle">04 · 结构变量</text><text x="64" y="122" font-size="34" fill="#123B5D" font-weight="700" text-anchor="start" font-family="Microsoft YaHei, Georgia, serif">决定质量的是具体拓扑变量，</text><text x="64" y="166" font-size="34" fill="#123B5D" font-weight="700" text-anchor="start" font-family="Microsoft YaHei, Georgia, serif">不只是“更全局”或“更稀疏”</text><rect x="64" y="180" width="784" height="4" rx="0" fill="#2A9D8F"/></g><g id="topology-radial" data-pptx-bounds="64 208 1025 410"><circle cx="610" cy="400" r="104" fill="#123B5D" fill-opacity="1"/><circle cx="610" cy="400" r="72" fill="#F8FAFC" fill-opacity="1"/><text x="610" y="392" font-size="16" fill="#E76F2E" font-weight="700" text-anchor="middle" font-family="Microsoft YaHei, Georgia, serif">ATTENTION</text><text x="610" y="422" font-size="24" fill="#123B5D" font-weight="700" text-anchor="middle" font-family="Microsoft YaHei, Georgia, serif">TOPOLOGY</text><rect x="74" y="230" width="284" height="86" rx="14" fill="#FFFFFF" stroke="#E76F2E" stroke-width="2"/><text x="94" y="264" font-size="22" fill="#123B5D" font-weight="700" text-anchor="start">张量位移</text><text x="94" y="294" font-size="16" fill="#52616F" font-weight="400" text-anchor="start">Q 与 K/V 谁移动？</text><line x1="610" y1="400" x2="216.0" y2="273" stroke="#E76F2E" stroke-width="2" stroke-dasharray="6 6"/><rect x="420" y="208" width="284" height="86" rx="14" fill="#FFFFFF" stroke="#2A9D8F" stroke-width="2"/><text x="440" y="242" font-size="22" fill="#123B5D" font-weight="700" text-anchor="start">Schedule</text><text x="440" y="272" font-size="16" fill="#52616F" font-weight="400" text-anchor="start">fixed / per-head / grouped</text><line x1="610" y1="400" x2="562.0" y2="251" stroke="#2A9D8F" stroke-width="2" stroke-dasharray="6 6"/><rect x="805" y="230" width="284" height="86" rx="14" fill="#FFFFFF" stroke="#123B5D" stroke-width="2"/><text x="825" y="264" font-size="22" fill="#123B5D" font-weight="700" text-anchor="start">Head 分配</text><text x="825" y="294" font-size="16" fill="#52616F" font-weight="400" text-anchor="start">local / cross / dilated 占比</text><line x1="610" y1="400" x2="947.0" y2="273" stroke="#123B5D" stroke-width="2" stroke-dasharray="6 6"/><rect x="124" y="506" width="284" height="86" rx="14" fill="#FFFFFF" stroke="#123B5D" stroke-width="2"/><text x="144" y="540" font-size="22" fill="#123B5D" font-weight="700" text-anchor="start">Pattern mixing</text><text x="144" y="570" font-size="16" fill="#52616F" font-weight="400" text-anchor="start">模式如何组合？</text><line x1="610" y1="400" x2="266.0" y2="549" stroke="#123B5D" stroke-width="2" stroke-dasharray="6 6"/><rect x="796" y="506" width="284" height="86" rx="14" fill="#FFFFFF" stroke="#E76F2E" stroke-width="2"/><text x="816" y="540" font-size="22" fill="#123B5D" font-weight="700" text-anchor="start">退化 variant</text><text x="816" y="570" font-size="16" fill="#52616F" font-weight="400" text-anchor="start">同设置是否反而变差？</text><line x1="610" y1="400" x2="938.0" y2="549" stroke="#E76F2E" stroke-width="2" stroke-dasharray="6 6"/><rect x="466" y="568" width="288" height="34" rx="17" fill="#E76F2E"/><text x="610.0" y="591" font-size="15" fill="#FFFFFF" font-weight="700" text-anchor="middle">Wiki schema 必须显式记录</text></g><g id="footer-05" data-pptx-bounds="64 670 1152 36" data-pptx-role="footer"><line x1="64" y1="672" x2="1216" y2="672" stroke="#B9C8D4" stroke-width="1"/><text x="64" y="699" font-size="13" fill="#52616F" font-weight="400" text-anchor="start">后续跨论文比较的最小结构单元</text><text x="1216" y="699" font-size="13" fill="#52616F" font-weight="700" text-anchor="end" font-family="Microsoft YaHei, Georgia, serif">05 / 16</text></g></svg>